# xmcd
#
# Track frame offsets:
#	150
#	20393
#	31735
#	41904
#	66081
#	76622
#	92121
#	110404
#	120864
#	137616
#	150559
#	165444
#	180236
#	198313
#	214341
#	226199
#	240621
#
# Disc length: 3325 seconds
#
# Revision: 1
# Processed by: cddbd v1.5.2PL0 Copyright (c) Steve Scherf et al.
# Submitted via: EasyCDDAExtractor 12.0.4.1
#
DISCID=c70cfb11
DTITLE=Владимир Высоцкий - Робин Гуд
DYEAR=1982
DGENRE=Chanson
TTITLE0=Замок Времени
TTITLE1=Ненависть
TTITLE2=Робин Гуд
TTITLE3=Баллада о любви
TTITLE4=Два лебедя
TTITLE5=Разбойничья песня
TTITLE6=Баллада о борьбе
TTITLE7=На судне бунт
TTITLE8=Реквием парусу
TTITLE9=Становись моряком
TTITLE10=Две синевы
TTITLE11=Призрак флибустьерского корвета
TTITLE12=Морякам
TTITLE13=Два судна
TTITLE14=Юнга
TTITLE15=Штормит весь вечер...
TTITLE16=Оплавляются свечи...
EXTD=
EXTT0=
EXTT1=
EXTT2=
EXTT3=
EXTT4=
EXTT5=
EXTT6=
EXTT7=
EXTT8=
EXTT9=
EXTT10=
EXTT11=
EXTT12=
EXTT13=
EXTT14=
EXTT15=
EXTT16=
PLAYORDER=
